<svg id="Layer_1" data-name="Layer 1" xmlns="http://www.w3.org/2000/svg" viewBox="0 0 258.8 100"><defs><style>.cls-1{fill:#5744b2;}.cls-2{fill:#ffdd4d;}.cls-3{fill:#50e3c2;}.cls-4{fill:#69f;}</style></defs><title>fondo_export_small</title><g id="_Group_" data-name="&lt;Group&gt;"><path id="_Path_" data-name="&lt;Path&gt;" class="cls-1" d="M62.5,53.3A22.2,22.2,0,0,1,82.6,85.1,22.2,22.2,0,1,0,54.8,54.7,22.2,22.2,0,0,1,62.5,53.3Z"/><path id="_Path_2" data-name="&lt;Path&gt;" class="cls-2" d="M62.5,97.9A22.2,22.2,0,0,0,82.6,85.1,22.2,22.2,0,0,1,54.8,54.7,22.2,22.2,0,0,0,62.5,97.9Z"/></g><g id="_Group_2" data-name="&lt;Group&gt;"><path id="_Path_3" data-name="&lt;Path&gt;" class="cls-1" d="M233.2,48a22.2,22.2,0,0,1-20.1-31.8,22.2,22.2,0,1,0,27.7,30.4A22.2,22.2,0,0,1,233.2,48Z"/><path id="_Path_4" data-name="&lt;Path&gt;" class="cls-2" d="M233.2,3.4a22.2,22.2,0,0,0-20.1,12.8,22.2,22.2,0,0,1,27.7,30.4A22.2,22.2,0,0,0,233.2,3.4Z"/></g><g id="_Group_3" data-name="&lt;Group&gt;"><polygon id="_Path_5" data-name="&lt;Path&gt;" class="cls-1" points="39.8 10 3.5 10 18.2 24.3 54.8 24.3 39.8 10"/><polygon id="_Path_6" data-name="&lt;Path&gt;" class="cls-3" points="39.8 40.8 11.7 40.8 26.3 55 54.8 55 39.8 40.8"/><polygon id="_Path_7" data-name="&lt;Path&gt;" class="cls-2" points="3.5 10 18.2 22 18.2 85.8 3.5 71.5 3.5 10"/></g><g id="_Group_4" data-name="&lt;Group&gt;"><polygon id="_Path_8" data-name="&lt;Path&gt;" class="cls-1" points="135.7 15.3 151.7 29.6 151.7 80.5 135.7 62.7 135.7 15.3"/><polygon id="_Path_9" data-name="&lt;Path&gt;" class="cls-4" points="151.7 80.5 112.2 28.5 97.2 15.3 137.1 66.3 151.7 80.5"/><polygon id="_Path_10" data-name="&lt;Path&gt;" class="cls-3" points="97.2 15.3 112.2 33.5 112.2 78.1 97.2 63.5 97.2 15.3"/></g><g id="_Group_5" data-name="&lt;Group&gt;"><path id="_Path_11" data-name="&lt;Path&gt;" class="cls-3" d="M199.2,98.2a22.1,22.1,0,0,0,4.4-43.7h0a17.5,17.5,0,0,1,.1,3.9,22.1,22.1,0,0,1-22.1,22.1H151.7l17.6,17.7h29.9Z"/><path id="_Path_12" data-name="&lt;Path&gt;" class="cls-2" d="M203.7,54.5H163L151.7,35.7h30.8S198.4,35.7,203.7,54.5Z"/></g></svg>